<?xml version="1.0" encoding="utf-8"?>
<!-- Generator: Adobe Illustrator 24.3.0, SVG Export Plug-In . SVG Version: 6.00 Build 0)  -->
<svg version="1.1" width="100%" height="160" id="Слой_1" xmlns="http://www.w3.org/2000/svg" xmlns:xlink="http://www.w3.org/1999/xlink" x="0px" y="0px"
	 viewBox="0 0 1000 100"  xml:space="preserve">
<style type="text/css">
	.st0{fill:#FFFFFF;}
</style>
<g>
	<g>
		<polygon class="st0" points="321.67,491.66 298.04,491.66 282.88,506.82 321.67,506.82 		"/>
		<polygon class="st0" points="282.88,526.15 282.88,506.82 282.88,491.66 282.88,473.63 326.8,473.63 326.8,458.12 281.39,458.12 
			263.66,475.84 263.66,541.67 328.36,541.67 328.36,526.15 		"/>
	</g>
	<path class="st0" d="M402.39,514.83c0.04-0.02,0.08-0.03,0.12-0.05c5.41-2.35,9.59-5.77,12.54-10.27c2.94-4.5,4.42-9.89,4.42-16.18
		c0-6.21-1.47-11.59-4.42-16.12c-2.95-4.54-7.13-8.02-12.54-10.45c-5.42-2.43-11.86-3.64-19.35-3.64h-16.92l-19.27,19.27v64.33
		h19.47v-23.41h16.72c0.29,0,0.56-0.01,0.85-0.02l16.23,23.42h20.78L402.39,514.83z M395.46,499.08c-3.03,2.55-7.49,3.82-13.38,3.82
		h-0.24l-15.41,15.41V502.9v-2.37v-26.65h15.65c5.89,0,10.35,1.25,13.38,3.76c3.02,2.51,4.54,6.07,4.54,10.69
		C400,492.95,398.49,496.53,395.46,499.08z"/>
	<g>
		<polygon class="st0" points="905.8,541.72 926.17,541.72 926.17,478.49 905.8,498.86 		"/>
		<rect x="905.8" y="458.12" class="st0" width="20.37" height="20.37"/>
	</g>
	<g>
		<polygon class="st0" points="224.87,458.12 224.87,491.08 203.37,491.08 187.01,507.44 224.87,507.44 224.87,541.67 
			244.21,541.67 244.21,522.32 244.21,458.12 		"/>
		<polyline class="st0" points="167.54,458.12 167.54,477.38 167.54,541.72 187.01,541.72 187.01,507.44 187.01,491.08 
			187.01,458.12 186.81,458.12 		"/>
	</g>
	<path class="st0" d="M589.16,541.76l17.82-17.62v-48.16l-17.82-17.82h-1.5h-37.9h-1.5l-17.82,17.82v47.96l17.78,17.78h1.54
		 M587.64,525.58h-37.9v-51.12h37.9V525.58z"/>
	<polygon class="st0" points="129.62,525.58 93.13,525.58 93.13,474.46 129.61,474.46 129.61,490.82 148.91,490.82 148.91,474.45 
		148.92,474.45 132.56,458.16 131.06,458.16 93.15,458.16 91.65,458.16 73.83,475.98 73.83,523.94 91.61,541.72 93.15,541.72 
		132.56,541.76 148.92,525.58 148.92,525.58 148.92,509.22 129.62,509.22 	"/>
	<g>
		<polygon class="st0" points="858.55,468.59 858.55,458.24 839.1,458.24 839.1,488.04 		"/>
		<polygon class="st0" points="806.86,541.8 825.73,541.8 848.1,504.8 870.37,541.8 891.02,541.8 858.58,488.04 858.58,488.04 
			839.1,488.04 839.1,488.04 		"/>
	</g>
	<polygon class="st0" points="682.8,541.81 682.8,525.51 682.8,474.38 644.89,474.38 644.89,525.51 644.89,541.81 643.41,541.81 
		625.59,541.85 625.59,476.02 643.37,458.24 644.91,458.24 702.14,458.19 702.14,475.82 702.14,522.47 	"/>
	<polygon class="st0" points="778.79,541.81 778.79,525.51 778.79,474.38 740.89,474.38 740.89,525.51 740.89,541.81 739.41,541.81 
		721.59,541.85 721.59,476.02 739.37,458.24 740.91,458.24 798.13,458.19 798.13,475.82 798.13,522.47 	"/>
	<path class="st0" d="M518.11,482.67"/>
	<polygon class="st0" points="494.25,458.19 494.25,469.13 494.25,479.18 492.71,480.73 458.89,514.55 458.89,458.15 439.55,458.15 
		439.55,541.88 458.89,541.88 458.89,541.87 458.9,541.88 506.38,494.4 513.59,487.19 513.59,482.71 513.59,482.55 513.59,458.16 	
		"/>
</g>
</svg>
